# xmcd
#
# Track frame offsets: 
#        150
#        24330
#        38737
#        55292
#        70785
#        111857
#        129232
#        160580
#        176140
#        197710
#        240977
#        263777
#
# Disc length: 3931 seconds
#
# Revision: 8
# Processed by: cddbd v1.5.2PL0 Copyright (c) Steve Scherf et al.
# Submitted via: ExactAudioCopy v0.95b4
#
DISCID=970f590c
DTITLE=Kansas - The Best Of Kansas
DYEAR=1999
DGENRE=Rock
TTITLE0=Carry On Wayward Son
TTITLE1=Point Of Know Return
TTITLE2=Fight Fire With Fire
TTITLE3=Dust In The Wind
TTITLE4=Song For America
TTITLE5=Hold On
TTITLE6=No One Together
TTITLE7=Play The Game Tonight
TTITLE8=The Wall
TTITLE9=The Pinnacle
TTITLE10=The Devil Game
TTITLE11=Closet Chronicles
EXTD=YEAR: 1999 ID3G: 17
EXTT0=
EXTT1=
EXTT2=
EXTT3=
EXTT4=
EXTT5=
EXTT6=
EXTT7=
EXTT8=
EXTT9=
EXTT10=
EXTT11=
PLAYORDER=
